<?xml version="1.0" encoding="UTF-8"?>
<svg version="1.1" xmlns="http://www.w3.org/2000/svg" width="512" height="512">
<path d="M0 0 C168.96 0 337.92 0 512 0 C512 168.96 512 337.92 512 512 C343.04 512 174.08 512 0 512 C0 343.04 0 174.08 0 0 Z " fill="#D90021" transform="translate(0,0)"/>
<path d="M0 0 C42.9 0 85.8 0 130 0 C130 51.15 130 102.3 130 155 C181.81 155 233.62 155 287 155 C287 198.56 287 242.12 287 287 C235.19 287 183.38 287 130 287 C130 339.47 130 391.94 130 446 C87.1 446 44.2 446 0 446 C0 393.53 0 341.06 0 287 C-52.47 287 -104.94 287 -159 287 C-159 243.44 -159 199.88 -159 155 C-106.53 155 -54.06 155 0 155 C0 103.85 0 52.7 0 0 Z " fill="#FFFFFF" transform="translate(190,33)"/>
</svg>
